#Comment line ignore any data following # character 
#Hierarchical Translation and Rotation (.htr) file 
[Header]	
#Header keywords are followed by a single value 
FileType HTR		#Single word string
DataType HTRS		#Translation followed by rotation and scale data
FileVersion 1		#integer
NumSegments 64		#integer
NumFrames 3		#integer
DataFrameRate 30		#integer, data frame rate in this file
EulerRotationOrder ZYX
CalibrationUnits mm
RotationUnits Degrees
GlobalAxisofGravity Y
BoneLengthAxis Y
ScaleFactor 1.00
[SegmentNames&Hierarchy]
#CHILD	PARENT
Pinger_Root GLOBAL
Pelvis Pinger_Root
L_Hip Pelvis
R_Hip Pelvis
Rear_Leg01 Pelvis
Spine1 Pelvis
L_Leg01 L_Hip
L_Leg02 L_Leg01
L_Leg03 L_Leg02
L_Foot L_Leg03
L_Toe1_01 L_Foot
L_Toe2_01 L_Foot
L_Toe3_01 L_Foot
planeAlignerLeft L_Foot
L_Toe1_02 L_Toe1_01
L_Toe1_03 L_Toe1_02
L_Toe2_02 L_Toe2_01
L_Toe2_03 L_Toe2_02
L_Toe3_02 L_Toe3_01
L_Toe3_03 L_Toe3_02
planeLockWeightLeft planeAlignerLeft
R_Leg01 R_Hip
R_Leg02 R_Leg01
R_Leg03 R_Leg02
R_Foot R_Leg03
planeAlignerRight R_Foot
R_Toe1_01 R_Foot
R_Toe2_01 R_Foot
R_Toe3_01 R_Foot
planeLockWeightRight planeAlignerRight
R_Toe1_02 R_Toe1_01
R_Toe1_03 R_Toe1_02
R_Toe2_02 R_Toe2_01
R_Toe2_03 R_Toe2_02
R_Toe3_02 R_Toe3_01
R_Toe3_03 R_Toe3_02
Rear_Leg02 Rear_Leg01
Rear_Leg03 Rear_Leg02
Rear_Leg04 Rear_Leg03
Rear_Foot Rear_Leg04
planeAlignerCenter Rear_Foot
Rear_Toe1_01 Rear_Foot
Rear_Toe2_01 Rear_Foot
Rear_Toe3_01 Rear_Foot
planeLockWeightCenter planeAlignerCenter
Rear_Toe1_02 Rear_Toe1_01
Rear_Toe1_03 Rear_Toe1_02
Rear_Toe2_02 Rear_Toe2_01
Rear_Toe2_03 Rear_Toe2_02
Rear_Toe3_02 Rear_Toe3_01
Rear_Toe3_03 Rear_Toe3_02
Back_Bone Spine1
Head Spine1
Motor_Bone Back_Bone
Ping_Mechanism Back_Bone
BN_LookIK Head
bottomMouth Head
L_Mouth01 Head
L_mouthFront Head
mouthGun Head
R_Mouth01 Head
R_mouthFront Head
TopMouth Head
weapon_bone Head
[BasePosition]
#SegmentName Tx, Ty, Tz, Rx, Ry, Rz, BoneLength
Pinger_Root 0.000000 0.000000 0.000000 -90.000000 0.000000 0.000000 10.000000 
Pelvis 0.000000 0.000000 0.000000 0.000000 0.000000 0.000000 10.000000 
L_Hip 0.000000 0.000000 0.000000 0.000000 0.000000 0.000000 10.000000 
R_Hip 0.000000 0.000000 0.000000 0.000000 0.000000 0.000000 10.000000 
Rear_Leg01 0.000000 0.000000 0.000000 0.000000 0.000000 0.000000 10.000000 
Spine1 0.000000 0.000000 0.000000 0.000000 0.000000 0.000000 10.000000 
L_Leg01 0.000000 0.000000 0.000000 0.000000 0.000000 0.000000 10.000000 
L_Leg02 0.000000 0.000000 0.000000 0.000000 0.000000 0.000000 10.000000 
L_Leg03 0.000000 0.000000 0.000000 0.000000 0.000000 0.000000 10.000000 
L_Foot 0.000000 0.000000 0.000000 0.000000 0.000000 0.000000 10.000000 
L_Toe1_01 0.000000 0.000000 0.000000 0.000000 0.000000 0.000000 10.000000 
L_Toe2_01 0.000000 0.000000 0.000000 0.000000 0.000000 0.000000 10.000000 
L_Toe3_01 0.000000 0.000000 0.000000 0.000000 0.000000 0.000000 10.000000 
planeAlignerLeft 0.000000 0.000000 0.000000 0.000000 0.000000 0.000000 10.000000 
L_Toe1_02 0.000000 0.000000 0.000000 0.000000 0.000000 0.000000 10.000000 
L_Toe1_03 0.000000 0.000000 0.000000 0.000000 0.000000 0.000000 10.000000 
L_Toe2_02 0.000000 0.000000 0.000000 0.000000 0.000000 0.000000 10.000000 
L_Toe2_03 0.000000 0.000000 0.000000 0.000000 0.000000 0.000000 10.000000 
L_Toe3_02 0.000000 0.000000 0.000000 0.000000 0.000000 0.000000 10.000000 
L_Toe3_03 0.000000 0.000000 0.000000 0.000000 0.000000 0.000000 10.000000 
planeLockWeightLeft 0.000000 0.000000 0.000000 0.000000 0.000000 0.000000 10.000000 
R_Leg01 0.000000 0.000000 0.000000 0.000000 0.000000 0.000000 10.000000 
R_Leg02 0.000000 0.000000 0.000000 0.000000 0.000000 0.000000 10.000000 
R_Leg03 0.000000 0.000000 0.000000 0.000000 0.000000 0.000000 10.000000 
R_Foot 0.000000 0.000000 0.000000 0.000000 0.000000 0.000000 10.000000 
planeAlignerRight 0.000000 0.000000 0.000000 0.000000 0.000000 0.000000 10.000000 
R_Toe1_01 0.000000 0.000000 0.000000 0.000000 0.000000 0.000000 10.000000 
R_Toe2_01 0.000000 0.000000 0.000000 0.000000 0.000000 0.000000 10.000000 
R_Toe3_01 0.000000 0.000000 0.000000 0.000000 0.000000 0.000000 10.000000 
planeLockWeightRight 0.000000 0.000000 0.000000 0.000000 0.000000 0.000000 10.000000 
R_Toe1_02 0.000000 0.000000 0.000000 0.000000 0.000000 0.000000 10.000000 
R_Toe1_03 0.000000 0.000000 0.000000 0.000000 0.000000 0.000000 10.000000 
R_Toe2_02 0.000000 0.000000 0.000000 0.000000 0.000000 0.000000 10.000000 
R_Toe2_03 0.000000 0.000000 0.000000 0.000000 0.000000 0.000000 10.000000 
R_Toe3_02 0.000000 0.000000 0.000000 0.000000 0.000000 0.000000 10.000000 
R_Toe3_03 0.000000 0.000000 0.000000 0.000000 0.000000 0.000000 10.000000 
Rear_Leg02 0.000000 0.000000 0.000000 0.000000 0.000000 0.000000 10.000000 
Rear_Leg03 0.000000 0.000000 0.000000 0.000000 0.000000 0.000000 10.000000 
Rear_Leg04 0.000000 0.000000 0.000000 0.000000 0.000000 0.000000 10.000000 
Rear_Foot 0.000000 0.000000 0.000000 0.000000 0.000000 0.000000 10.000000 
planeAlignerCenter 0.000000 0.000000 0.000000 0.000000 0.000000 0.000000 10.000000 
Rear_Toe1_01 0.000000 0.000000 0.000000 0.000000 0.000000 0.000000 10.000000 
Rear_Toe2_01 0.000000 0.000000 0.000000 0.000000 0.000000 0.000000 10.000000 
Rear_Toe3_01 0.000000 0.000000 0.000000 0.000000 0.000000 0.000000 10.000000 
planeLockWeightCenter 0.000000 0.000000 0.000000 0.000000 0.000000 0.000000 10.000000 
Rear_Toe1_02 0.000000 0.000000 0.000000 0.000000 0.000000 0.000000 10.000000 
Rear_Toe1_03 0.000000 0.000000 0.000000 0.000000 0.000000 0.000000 10.000000 
Rear_Toe2_02 0.000000 0.000000 0.000000 0.000000 0.000000 0.000000 10.000000 
Rear_Toe2_03 0.000000 0.000000 0.000000 0.000000 0.000000 0.000000 10.000000 
Rear_Toe3_02 0.000000 0.000000 0.000000 0.000000 0.000000 0.000000 10.000000 
Rear_Toe3_03 0.000000 0.000000 0.000000 0.000000 0.000000 0.000000 10.000000 
Back_Bone 0.000000 0.000000 0.000000 0.000000 0.000000 0.000000 10.000000 
Head 0.000000 0.000000 0.000000 0.000000 0.000000 0.000000 10.000000 
Motor_Bone 0.000000 0.000000 0.000000 0.000000 0.000000 0.000000 10.000000 
Ping_Mechanism 0.000000 0.000000 0.000000 0.000000 0.000000 0.000000 10.000000 
BN_LookIK 0.000000 0.000000 0.000000 0.000000 0.000000 0.000000 10.000000 
bottomMouth 0.000000 0.000000 0.000000 0.000000 0.000000 0.000000 10.000000 
L_Mouth01 0.000000 0.000000 0.000000 0.000000 0.000000 0.000000 10.000000 
L_mouthFront 0.000000 0.000000 0.000000 0.000000 0.000000 0.000000 10.000000 
mouthGun 0.000000 0.000000 0.000000 0.000000 0.000000 0.000000 10.000000 
R_Mouth01 0.000000 0.000000 0.000000 0.000000 0.000000 0.000000 10.000000 
R_mouthFront 0.000000 0.000000 0.000000 0.000000 0.000000 0.000000 10.000000 
TopMouth 0.000000 0.000000 0.000000 0.000000 0.000000 0.000000 10.000000 
weapon_bone 0.000000 0.000000 0.000000 0.000000 0.000000 0.000000 10.000000 
#Beginning of Data. Separated by tabs
#Fr	Tx	Ty	Tz	Rx	Ry	Rz	SF
[Pinger_Root]
43 0.000000 0.000000 0.000000 -0.000061 -0.000046 -73.934128 0.000000
44 0.000000 0.000000 0.000000 -0.000060 -0.000047 -76.238457 0.000000
45 0.000000 0.000000 0.000000 -0.000059 -0.000048 -78.531517 0.000000
[Pelvis]
43 34.683170 211.922134 4421.211426 -18.167109 -86.185455 -4.262515 4426.423340
44 7.454619 220.793716 4432.632813 -58.532951 -87.578522 38.338978 4438.134766
45 -9.442156 233.129440 4442.408203 -109.249481 -86.094101 91.161911 4448.530762
[L_Hip]
43 5.766392 125.831482 872.656799 160.158661 -45.484905 122.312218 881.701050
44 5.766392 125.831482 872.656799 160.158691 -45.484894 122.312202 881.701050
45 5.766392 125.831482 872.656799 160.158691 -45.484905 122.312202 881.701050
[R_Hip]
43 5.765438 125.836372 -872.654907 30.683016 53.806759 116.290680 881.699829
44 5.765438 125.836372 -872.654907 33.874718 52.289738 120.285355 881.699829
45 5.765438 125.836372 -872.654907 36.783894 50.647133 124.005104 881.699829
[Rear_Leg01]
43 -192.298416 -925.602966 -0.001907 167.386322 4.804047 -163.674240 945.367432
44 -192.298416 -925.602966 -0.001907 166.203583 2.622771 -164.779190 945.367432
45 -192.298416 -925.602966 -0.001907 165.051376 0.210120 -166.605576 945.367432
[Spine1]
43 290.604584 5.007505 0.000477 4.001582 -4.470727 23.027246 290.647736
44 290.604584 5.007505 0.000477 4.929004 -2.297608 21.983152 290.647736
45 290.604584 5.007505 0.000477 6.001644 0.021162 20.239658 290.647736
[L_Leg01]
43 761.932007 -0.002384 -0.069261 28.053070 -4.349605 -24.983614 761.932068
44 761.932007 -0.002384 -0.069261 25.315985 -10.547076 -14.872235 761.932068
45 761.932007 -0.002384 -0.069261 19.772146 -16.152544 -1.427502 761.932068
[L_Leg02]
43 1441.140503 -0.000954 -0.000715 7.234571 3.057034 -154.895401 1441.140503
44 1441.140503 -0.000954 -0.000715 7.585870 2.167878 -148.519653 1441.140503
45 1441.140503 -0.000954 -0.000715 6.198126 0.574683 -144.669724 1441.140503
[L_Leg03]
43 1686.963989 -0.000715 -0.000954 -0.122950 0.077257 143.232437 1686.963989
44 1686.963989 -0.000715 -0.000954 -0.100876 0.060040 137.830658 1686.963989
45 1686.963989 -0.000715 -0.000954 -0.063757 0.033155 128.163544 1686.963989
[L_Foot]
43 3041.570068 -30.715107 11.297464 -8.910104 25.911631 48.969604 3041.746094
44 3041.570068 -30.715107 11.297464 -5.388356 18.509012 47.296749 3041.746094
45 3041.570068 -30.715107 11.297464 -4.097632 9.886814 52.018616 3041.746094
[L_Toe1_01]
43 -188.216690 -224.732346 -21.137953 79.530907 -1.662982 -127.070824 293.899567
44 -188.216690 -224.732346 -21.137953 78.316437 -6.897061 -139.258087 293.899567
45 -188.216690 -224.732346 -21.137953 78.773849 -13.119374 -154.559357 293.899567
[L_Toe2_01]
43 200.746536 -219.926590 148.838394 -91.105072 8.905997 -80.379951 332.896027
44 200.746536 -219.926590 148.838394 -90.587883 4.296450 -76.114761 332.896027
45 200.746536 -219.926590 148.838394 -89.568428 -0.553587 -78.449341 332.896027
[L_Toe3_01]
43 188.832520 -219.859131 -191.078659 -112.403961 11.961498 -93.037849 347.140900
44 188.832520 -219.859131 -191.078659 -111.139748 15.311975 -92.155533 347.140900
45 188.832520 -219.859131 -191.078659 -108.734238 16.235662 -93.730003 347.140900
[planeAlignerLeft]
43 209.469208 -899.502625 35.673672 -141.286255 -76.073608 55.349522 924.259155
44 178.359299 -904.195007 30.301706 -130.190186 -78.598007 39.999519 922.116455
45 111.920975 -914.672119 23.484777 -118.111488 -80.107658 19.720287 921.793335
[L_Toe1_02]
43 413.761139 0.000477 0.000000 0.001384 -25.931698 0.001384 413.761139
44 413.761139 0.000477 0.000000 0.001402 -23.642912 0.001402 413.761139
45 413.761139 0.000477 0.000000 0.001432 -20.061478 0.001432 413.761139
[L_Toe1_03]
43 464.317322 0.000358 -0.000089 0.004067 56.458160 0.004067 464.317322
44 464.317322 0.000358 -0.000089 0.009218 75.370171 0.009218 464.317322
45 464.317322 0.000358 -0.000089 0.000000 89.759338 -0.000005 464.317322
[L_Toe2_02]
43 342.235809 -0.000477 0.000238 0.001181 -77.006287 0.001181 342.235809
44 342.235809 -0.000477 0.000238 0.001181 -77.214989 0.001181 342.235809
45 342.235809 -0.000477 0.000238 0.001184 -74.910629 0.001184 342.235809
[L_Toe2_03]
43 420.210846 -0.000715 0.000000 -179.994980 80.270996 -179.991470 420.210846
44 420.210846 -0.000715 0.000000 -179.995544 79.381195 -179.992035 420.210846
45 420.210846 -0.000715 0.000000 179.986176 87.345169 179.987915 420.210846
[L_Toe3_02]
43 329.270111 0.000954 0.000000 0.001186 -73.564720 0.001186 329.270111
44 329.270111 0.000954 0.000000 0.001179 -78.639717 0.001179 329.270111
45 329.270111 0.000954 0.000000 0.001177 -80.687828 0.001177 329.270111
[L_Toe3_03]
43 439.137451 -0.001907 0.000954 0.015118 81.095085 0.015118 439.137451
44 439.137451 -0.001907 0.000954 -179.988098 85.173950 -179.984604 439.137451
45 439.137451 -0.001907 0.000954 -179.996353 77.790054 -179.992828 439.137451
[planeLockWeightLeft]
43 -0.000076 0.098267 0.076027 -0.011826 -0.004376 0.005620 0.124243
44 156.248810 0.098267 0.076084 -0.011826 -0.004376 0.005620 156.248856
45 499.997375 0.098114 0.076180 -0.011826 -0.004376 0.005620 499.997375
[R_Leg01]
43 761.455627 -0.001907 -0.000358 119.727043 -6.443829 39.735580 761.455688
44 761.455627 -0.001907 -0.000358 120.817810 -7.112828 38.837498 761.455688
45 761.455627 -0.001907 -0.000358 122.182198 -8.875817 37.381516 761.455688
[R_Leg02]
43 1441.140625 0.000000 -0.000238 -0.648670 0.045306 -100.475464 1441.140625
44 1441.140625 0.000000 -0.000238 -0.572570 0.060411 -98.478035 1441.140625
45 1441.140625 0.000000 -0.000238 -0.529612 0.061810 -97.337135 1441.140625
[R_Leg03]
43 1686.963989 0.000954 0.001431 0.049290 -0.026160 124.242508 1686.963989
44 1686.963989 0.000954 0.001431 0.049359 -0.026031 123.942757 1686.963989
45 1686.963989 0.000954 0.001431 0.049426 -0.025902 123.642998 1686.963989
[R_Foot]
43 3041.560059 -30.531288 -11.204481 -1.133455 -24.023537 41.575302 3041.734131
44 3041.560059 -30.531288 -11.204481 -0.925324 -24.020918 41.074677 3041.734131
45 3041.560059 -30.531288 -11.204481 -0.717239 -24.016640 40.574093 3041.734131
[planeAlignerRight]
43 -126.641541 -505.923859 -312.439850 -36.803848 -71.492439 -64.128586 607.960266
44 -126.643372 -523.639893 -312.446747 -36.690052 -71.415764 -64.236725 622.784302
45 -126.643669 -546.024963 -312.454956 -36.577137 -71.339012 -64.343925 641.724243
[R_Toe1_01]
43 -188.383347 -224.864899 21.052242 76.911263 -0.626629 -177.114105 294.101532
44 -188.383347 -224.864899 21.052242 76.869316 -0.570913 -175.922318 294.101532
45 -188.383347 -224.864899 21.052242 76.828514 -0.514330 -174.730453 294.101532
[R_Toe2_01]
43 200.637817 -220.002121 -148.787384 -89.851433 34.539276 -54.849960 332.857574
44 200.637817 -220.002121 -148.787384 -90.395836 34.093288 -56.068790 332.857574
45 200.637817 -220.002121 -148.787384 -90.925865 33.637829 -57.276154 332.857574
[R_Toe3_01]
43 188.606735 -220.092957 191.126343 -73.268723 -9.756800 -69.382362 347.192566
44 188.606735 -220.092957 191.126343 -73.242691 -9.361672 -70.710159 347.192566
45 188.606735 -220.092957 191.126343 -73.225952 -8.966052 -72.036293 347.192566
[planeLockWeightRight]
43 999.999451 -0.000122 0.075891 -0.011823 -0.004379 -0.000027 999.999451
44 999.999451 -0.000113 0.075894 -0.011823 -0.004379 -0.000027 999.999451
45 999.999390 -0.000105 0.075896 -0.011823 -0.004379 -0.000027 999.999390
[R_Toe1_02]
43 413.762085 0.000477 -0.000119 0.001397 -24.325785 0.001397 413.762085
44 413.762085 0.000477 -0.000119 0.001397 -24.320406 0.001397 413.762085
45 413.762085 0.000477 -0.000119 0.001397 -24.358084 0.001397 413.762085
[R_Toe1_03]
43 464.317810 0.000000 0.001088 0.007528 72.060799 0.007528 464.317810
44 464.317810 0.000000 0.001088 0.007357 71.641869 0.007357 464.317810
45 464.317810 0.000000 0.001088 0.007071 70.892120 0.007071 464.317810
[R_Toe2_02]
43 342.234741 -0.000954 0.000238 0.001191 -70.513374 0.001191 342.234741
44 342.234741 -0.000954 0.000238 0.001192 -69.644119 0.001192 342.234741
45 342.234741 -0.000954 0.000238 0.001194 -68.774803 0.001194 342.234741
[R_Toe2_03]
43 420.210846 0.000715 -0.000268 0.014617 80.789558 0.014617 420.210846
44 420.210846 0.000715 -0.000268 0.012276 79.028221 0.012276 420.210846
45 420.210846 0.000715 -0.000268 0.010140 76.707512 0.010140 420.210846
[R_Toe3_02]
43 329.270355 -0.000477 -0.000954 0.001180 -78.129303 0.001180 329.270355
44 329.270355 -0.000477 -0.000954 0.001181 -77.168709 0.001181 329.270355
45 329.270355 -0.000477 -0.000954 0.001182 -76.208054 0.001182 329.270355
[R_Toe3_03]
43 439.137939 0.000238 0.001431 -179.981140 86.803345 -179.977646 439.137939
44 439.137939 0.000238 0.001431 -179.911209 89.272072 -179.907715 439.137939
45 439.137939 0.000238 0.001431 -0.028238 87.513283 -0.024741 439.137939
[Rear_Leg02]
43 1162.777710 -0.029802 0.005960 2.697823 -4.334878 -144.815369 1162.777710
44 1162.777710 -0.029802 0.005960 2.362568 -3.935940 -143.719391 1162.777710
45 1162.777710 -0.029802 0.005960 2.018532 -3.548319 -142.182724 1162.777710
[Rear_Leg03]
43 607.192505 -0.013351 -0.073195 0.010355 -0.005378 71.247604 607.192505
44 607.192505 -0.013351 -0.073195 0.010361 -0.005366 71.112099 607.192505
45 607.192505 -0.013351 -0.073195 0.010379 -0.005333 70.745155 607.192505
[Rear_Leg04]
43 995.874512 -0.020504 -0.011921 -0.041207 -0.016462 73.809906 995.874573
44 995.874512 -0.020504 -0.011921 -0.041087 -0.016766 72.965393 995.874573
45 995.874512 -0.020504 -0.011921 -0.040962 -0.017068 72.120857 995.874573
[Rear_Foot]
43 3096.176270 -0.067472 -0.041425 -82.736275 85.384331 101.903557 3096.176270
44 3096.176270 -0.067472 -0.041425 -72.563423 85.701721 111.925262 3096.176270
45 3096.176270 -0.067472 -0.041425 -65.398277 85.972649 118.925262 3096.176270
[planeAlignerCenter]
43 -60.339375 -15.375671 -691.448669 12.650404 -4.944522 175.258636 694.246765
44 -62.923409 -15.229798 -692.170471 12.691620 -5.140121 174.978683 695.191589
45 -63.497417 -15.070802 -697.225769 12.733806 -5.335514 174.698502 700.273376
[Rear_Toe1_01]
43 0.653352 83.966492 -371.173737 7.188375 35.942570 90.888214 380.553192
44 0.653352 83.966492 -371.173737 7.453688 36.197998 90.696754 380.553192
45 0.653352 83.966492 -371.173737 7.718812 36.454140 90.506096 380.553192
[Rear_Toe2_01]
43 178.200760 -294.826019 -362.060547 -13.811478 32.158794 -77.178490 499.765686
44 178.200760 -294.826019 -362.060547 -14.080826 32.362263 -77.797310 499.765686
45 178.200760 -294.826019 -362.060547 -14.353368 32.563248 -78.418617 499.765686
[Rear_Toe3_01]
43 -153.359680 -308.780914 -362.060852 -1.497725 25.901489 -122.226921 499.952881
44 -153.359680 -308.780914 -362.060852 -1.768986 25.706043 -122.917427 499.952881
45 -153.359680 -308.780914 -362.060852 -1.908689 25.862598 -123.330284 499.952881
[planeLockWeightCenter]
43 1000.000122 0.000610 0.076149 -0.011814 -0.004373 -0.000015 1000.000122
44 1000.000122 0.000610 0.076156 -0.011814 -0.004373 -0.000015 1000.000122
45 1000.000122 0.000610 0.076163 -0.011814 -0.004373 -0.000015 1000.000122
[Rear_Toe1_02]
43 379.707825 0.194073 0.000477 0.001334 -33.160080 0.001334 379.707855
44 379.707825 0.194073 0.000477 0.001334 -33.160088 0.001334 379.707855
45 379.707825 0.194073 0.000477 0.001334 -33.160080 0.001334 379.707855
[Rear_Toe1_03]
43 500.129700 0.165701 0.000119 -0.004418 64.719330 -0.000835 500.129761
44 500.129700 0.165701 0.000119 -0.004406 64.596390 -0.000822 500.129761
45 500.129700 0.165701 0.000119 -0.004341 63.907307 -0.000751 500.129761
[Rear_Toe2_02]
43 340.494507 0.000238 -0.000954 0.001188 -72.254974 0.001188 340.494507
44 340.494507 0.000238 -0.000954 0.001188 -72.067177 0.001188 340.494507
45 340.494507 0.000238 -0.000954 0.001188 -71.879341 0.001188 340.494507
[Rear_Toe2_03]
43 433.103577 0.000000 0.000238 0.008158 73.457741 0.008158 433.103546
44 433.103577 0.000000 0.000238 0.008155 73.451569 0.008155 433.103546
45 433.103577 0.000000 0.000238 0.007988 73.103088 0.007988 433.103546
[Rear_Toe3_02]
43 340.494141 -0.000358 -0.000477 0.008217 -67.090637 -0.009390 340.494171
44 340.494141 -0.000358 -0.000477 0.008217 -67.090660 -0.009390 340.494171
45 340.494141 -0.000358 -0.000477 0.008217 -67.090637 -0.009390 340.494171
[Rear_Toe3_03]
43 433.103577 0.001431 -0.000238 -0.000955 65.814621 -0.004531 433.103546
44 433.103577 0.001431 -0.000238 -0.000950 65.770447 -0.004527 433.103546
45 433.103577 0.001431 -0.000238 -0.000945 65.726295 -0.004522 433.103546
[Back_Bone]
43 1312.175781 -701.934692 0.000954 0.000023 -0.000007 -85.606667 1488.125488
44 1312.175781 -701.934692 0.000954 0.000023 -0.000007 -85.606667 1488.125488
45 1312.175781 -701.934692 0.000954 0.000023 -0.000007 -85.606667 1488.125488
[Head]
43 1406.159424 809.709290 0.001431 0.000008 0.000003 7.767519 1622.625488
44 1406.159424 809.709290 0.001431 0.000008 0.000003 7.767519 1622.625488
45 1406.159424 809.709290 0.001431 0.000008 0.000003 7.767519 1622.625488
[Motor_Bone]
43 1158.364380 -417.834747 0.000477 -0.059733 10.059076 -105.317993 1231.419434
44 1158.364380 -417.834747 0.000477 -0.064786 8.710224 -105.395844 1231.419434
45 1158.364380 -417.834747 0.000477 -0.078127 6.957569 -105.501831 1231.419434
[Ping_Mechanism]
43 1219.110107 -434.508942 19.471859 0.000103 -0.000053 82.120995 1294.375122
44 1223.968506 -437.502716 8.060833 0.000103 -0.000053 82.120995 1299.835571
45 1232.638062 -441.552399 -3.872666 0.000103 -0.000053 82.120995 1309.343384
[BN_LookIK]
43 193.241119 1380.371704 -0.002861 0.000000 89.965736 -31.038179 1393.832153
44 193.241119 1380.371704 -0.002861 0.000000 89.965736 -31.038179 1393.832153
45 193.241119 1380.371704 -0.002861 0.000000 89.965736 -31.038179 1393.832153
[bottomMouth]
43 -435.092926 615.759399 -0.000954 -0.000022 0.000016 73.527184 753.966492
44 -435.092926 615.759399 -0.000954 -0.000022 0.000016 73.527184 753.966492
45 -435.092926 615.759399 -0.000954 -0.000022 0.000016 73.527184 753.966492
[L_Mouth01]
43 554.440979 7.658243 838.222046 150.204178 23.759130 109.605339 1005.027161
44 554.440979 7.658243 838.222046 150.204178 23.759130 109.605339 1005.027161
45 554.440979 7.658243 838.222046 150.204178 23.759130 109.605339 1005.027161
[L_mouthFront]
43 551.629089 934.514771 339.150421 0.000081 2.804060 79.119301 1136.941284
44 551.629089 934.514771 339.150421 0.000081 2.804060 79.119301 1136.941284
45 551.629089 934.514771 339.150421 0.000081 2.804060 79.119301 1136.941284
[mouthGun]
43 55.332661 1627.420898 0.000000 0.000023 0.000009 -11.038128 1628.361328
44 55.332661 1627.420898 0.000000 0.000023 0.000009 -11.038128 1628.361328
45 55.332661 1627.420898 0.000000 0.000023 0.000009 -11.038128 1628.361328
[R_Mouth01]
43 554.442383 7.659197 -838.223938 29.795891 -23.759109 109.605331 1005.029541
44 554.442383 7.659197 -838.223938 29.795891 -23.759109 109.605331 1005.029541
45 554.442383 7.659197 -838.223938 29.795891 -23.759109 109.605331 1005.029541
[R_mouthFront]
43 551.629089 934.514282 -339.151367 0.000029 -2.803930 79.119133 1136.941162
44 551.629089 934.514282 -339.151367 0.000029 -2.803930 79.119133 1136.941162
45 551.629089 934.514282 -339.151367 0.000029 -2.803930 79.119133 1136.941162
[TopMouth]
43 461.269867 -56.106091 -0.008583 -0.000059 -0.000268 92.025169 464.669525
44 461.269867 -56.106091 -0.008583 -0.000059 -0.000268 92.025169 464.669525
45 461.269867 -56.106091 -0.008583 -0.000059 -0.000268 92.025169 464.669525
[weapon_bone]
43 -987.239868 1448.372803 0.001431 0.000000 89.965736 -31.038221 1752.833740
44 -987.239868 1448.372803 0.001431 0.000000 89.965736 -31.038221 1752.833740
45 -987.239868 1448.372803 0.001431 0.000000 89.965736 -31.038221 1752.833740
